# xmcd
#
# Track frame offsets:
#	183
#	18323
#	40880
#	60103
#
# Disc length: 1030 seconds
#
# Revision: 0
# Processed by: cddbd v1.4PL0 Copyright (c) Steve Scherf et al.
# Submitted via: EasyCDDAExtractor 4.6.9.1
#
DISCID=23040404
DTITLE=Sting - This Cowboy Song
DYEAR=1900
DGENRE=
TTITLE0=This Cowboy Song(LP Edit)
TTITLE1=This Cowboy Song(LP Version)
TTITLE2=This Cowboy Song(Single Reggae Mix With Toast)
TTITLE3=This Cowboy Song(Single Reggae Mix)
EXTD=
EXTT0=
EXTT1=
EXTT2=
EXTT3=
PLAYORDER=
